<?xml version="1.0"?>
<svg xmlns="http://www.w3.org/2000/svg" version="1.2" baseProfile="tiny" width="800" height="1018" viewBox="0 0 800 1018" stroke-linecap="round" stroke-linejoin="round">
<g id="Local_Government_Areas">
<path d="M 198.73 191.99 199.93 188.44 201.84 182.79 202.09 182.07 210.15 184.01 215.22 182.88 210.78 202.06 212.45 209.73 202.75 237.06 206.18 246.22 206.56 270.1 204.22 268.71 200.56 268.32 199.25 265.5 193.87 260.42 185.71 254.5 179.42 242.61 181.38 227.41 191 208.38 193.44 194.89 198.73 191.99 Z"/>
<path d="M 460.42 1016.45 459.4 1002.33 462.73 964.63 469.62 959.91 492.02 957.19 496.53 945.93 535.86 944.47 552.6 949.37 557.45 945.35 575.64 946.82 587.69 952.32 589.38 964.78 586.71 976.88 568.03 974.7 563.81 979.98 561.77 998.88 568.78 1011.36 563.75 1016.45 460.42 1016.45 Z"/>
<path d="M 570.89 859.77 562.73 834.68 564.79 829.39 556.52 814.77 579.98 814.38 596.94 800.88 606.31 787.75 600.35 767.69 616.51 747.14 629.08 741.76 634.73 749.86 648.16 751.21 658.96 769.13 657.39 778.36 667.69 783.98 661.09 796.92 650.88 795.35 637.01 836.16 639.66 842.24 637.08 852.49 612.44 853.07 595.41 859.6 570.89 859.77 Z"/>
<path d="M 352.42 761.39 349.68 756.5 356.7 719.62 353.64 708.75 333.99 706.83 339.5 692.46 333.57 689.13 289.44 684.72 301.24 667.48 317.79 668.54 327.6 674.96 334.94 666.59 347.22 667.93 350.36 659.39 369.11 646.02 382.06 649.16 387.93 639.51 393.97 642.02 394.47 659.11 413.49 662.41 417.5 679.94 431.81 683.73 432.51 695.85 445.07 702.41 460.14 721.78 477.95 726.44 473.5 739.54 475.6 754.76 472.65 764.16 461.04 768.49 452.71 780.96 442.09 782.43 409.08 760.13 400.2 750.1 392.8 767.63 361.21 766.83 352.42 761.39 Z"/>
<path d="M 155.24 909.1 155.23 862.27 150.62 862.27 150.72 838.04 138.73 835.06 139.92 821.89 147.93 822.71 149.26 795.61 167.71 794.98 182.11 789.73 192.79 792.45 205.08 786.45 204.78 775.72 211.75 764.65 214.04 744.39 229.94 742.62 251.65 744.5 261.46 753.52 259.98 766.66 272.31 774.22 277.23 765.92 296.12 769.33 294.89 785.85 285.37 792.98 279.91 804.54 292.02 811.95 306.41 802.34 316.95 814.21 320.8 824.22 309.32 840.98 288.36 825.6 280.59 830.02 279.36 841.63 268.11 848.97 236.93 842.37 215.48 855.03 214.88 872.52 209.58 882.03 192.16 880.45 197.65 900.84 183.16 897.19 166.4 897.37 164.91 910.04 155.24 909.1 Z"/>
<path d="M 384.31 836.97 375.13 829.52 363.28 828.22 355.38 813.07 345.1 802.42 344.43 793.08 345.24 770.55 352.42 761.39 361.21 766.83 392.8 767.63 400.2 750.1 409.08 760.13 442.09 782.43 451.65 793.79 478.45 805.75 466.26 810.93 457.05 822.45 441.44 820.05 438.07 828.31 422.99 825.19 420.76 841.31 410.32 847.1 385.86 849.42 384.31 836.97 Z"/>
<path d="M 1.2 735.15 1.17 680.29 1.12 615.69 10.38 605.62 28.48 621.89 54.71 598.76 59.22 603.67 81 600.63 80.1 619.88 64.71 631.42 68.99 642.9 68.91 656.36 84.84 668.39 107.14 670.14 117.23 674.48 131.22 664.01 140.24 674.26 151.42 669.12 164.64 669.87 159.35 680.97 165.47 687.74 157.64 705.72 146.5 717.15 137.93 716.51 121.46 729.86 122.16 735.24 100.56 733.32 98.36 744.16 76.41 742.88 77.02 735.15 56.52 724.16 39.08 739.8 1.2 735.15 Z"/>
<path d="M 768.18 946.08 757.36 939.25 758.31 930.17 768.78 934.64 774.64 928.25 781.66 937.83 780.23 944.95 768.18 946.08 Z"/>
<path d="M 155.24 909.1 164.91 910.04 166.4 897.37 183.16 897.19 197.65 900.84 221.69 902.96 223.7 908.96 239.64 911.54 250.5 919.64 264.58 921.07 266.03 927.25 284.48 928.97 300.82 937.21 307.63 945.99 325.77 947.27 324.25 961.36 340.11 963.82 342.1 1006.67 333.91 1016.45 257.97 1016.44 155.23 1016.45 155.24 958.7 155.24 909.1 Z"/>
<path d="M 733.93 833.25 728.47 828.36 712.82 826.53 706.69 814.9 697.5 813.86 686.1 793.1 709.54 797.99 719.41 794.72 719.82 786.23 782.79 786.25 784.8 795.55 783.01 806.94 772.64 820.4 743.02 822.83 733.93 833.25 Z"/>
<path d="M 481.09 574.74 474.37 574.06 457.2 556.19 459.66 543.23 464.29 539.7 465.46 525.07 471.85 518.34 582.61 518.34 617.49 538.84 565.95 538.88 500.08 538.88 488.46 547.76 487.21 559.29 477.34 560.83 481.09 574.74 Z"/>
<path d="M 79 525.53 80.88 511.58 63.12 510.18 64.09 498.65 51.93 491.19 40.1 501.33 32.32 493.62 11.17 491.56 13.47 461.67 1.05 460.83 1 376.64 17.67 387.36 33.42 388.58 46.2 393.98 58.17 400.99 64.79 416.89 93.35 430.07 90.91 443.9 98.1 459.67 97.66 473.24 91.85 490.84 99.39 504.38 107.34 532.14 92.91 526.47 79 525.53 Z M 46.33 452.63 47.6 427.32 32.1 424.42 31.31 446.22 46.33 452.63 Z" fill-rule="evenodd"/>
<path d="M 403.45 425.86 401.67 415.55 392.53 404.92 392.25 385.73 425.23 384.84 435.51 397.67 440.66 420.94 415.06 420.98 403.45 425.86 Z"/>
<path d="M 151.23 509.97 140.44 506.44 99.39 504.38 91.85 490.84 97.66 473.24 98.1 459.67 90.91 443.9 93.35 430.07 103.55 436.88 121.93 435.52 134.9 430.67 149.29 419.93 153.94 398.94 165.74 384.51 177.49 352.71 174.73 344.85 180.15 323.26 205.18 326.85 211.37 307.4 218.91 319.35 239.96 321.27 240.85 313.62 256.5 314.73 252.3 329.44 246.62 329.11 243.08 353.05 237.19 358.77 232.67 398.89 233.38 409.32 220.33 425.57 215.75 429.4 201.34 417.31 192.67 422.55 176.94 423.11 177.49 438.8 165.52 452.46 164.55 462.63 173.95 486.66 190.78 488.31 189.56 501.46 213.1 502.68 214.77 510.31 227.16 509.52 225.81 523.58 214.76 526.38 176.69 515.53 151.23 509.97 Z M 188.39 301.24 188.66 301.17 192.44 304.77 196.58 304.82 198.55 304.07 199.97 304.08 200.4 303.76 200.63 303.83 201.04 303.57 201.32 303.49 202.19 303.32 202.77 303.32 203.2 303.46 203.85 302.68 204.45 302.37 206.22 301.96 206.78 302.14 210.78 300.22 212.28 298.09 212.41 298.14 212.44 298.66 209.3 301.61 206.63 302.45 206.07 302.06 204.34 303.02 203.55 303.1 203.22 303.48 202.76 303.34 202.17 303.39 202.12 303.57 201.04 303.6 200.62 303.86 200.44 303.79 199.99 304.11 195.63 305.13 192.39 304.8 188.39 301.24 Z" fill-rule="evenodd"/>
<path d="M 399.46 471.99 402.42 466.34 393.53 455.85 395.78 447.84 390.2 438.36 403.45 425.86 415.06 420.98 440.66 420.94 448.94 434.79 447.2 440.43 465.46 461.19 483.64 465.28 494.01 481.54 463.29 481.54 463.29 477.26 418.16 477.75 416.27 472.25 399.46 471.99 Z"/>
<path d="M 512.1 805.11 500.72 797.39 478.45 805.75 451.65 793.79 442.09 782.43 452.71 780.96 461.04 768.49 472.65 764.16 475.6 754.76 473.5 739.54 477.95 726.44 481.27 717.99 504 698.17 514.22 692.72 531.25 705.83 542.38 702.11 552.38 726.3 561.53 722.05 568.28 711.37 576.06 711.05 584.78 702.12 591.71 714.78 601.02 713.16 603.68 730.74 604.79 733.03 616.51 747.14 600.35 767.69 606.31 787.75 596.94 800.88 579.98 814.38 556.52 814.77 564.79 829.39 562.73 834.68 551.93 825.86 533.07 823.16 512.1 805.11 Z"/>
<path d="M 413.49 662.41 394.47 659.11 393.97 642.02 387.93 639.51 384.44 629.41 375.49 627.59 365.58 586.6 351.36 571.44 349.06 557.78 329.55 551.02 331.1 534.38 323.89 532.46 327.3 524.78 339.94 519.4 349 510.62 345.08 502.81 350.75 491.19 342.7 483.84 347.29 467.97 352.2 476.99 367.71 480.64 373.93 473.61 398.45 474.92 403.36 480.82 401.18 492.95 420.49 499.71 440.28 524.37 439.6 538.28 459.66 543.23 457.2 556.19 474.37 574.06 481.09 574.74 470.87 587.84 462.01 586.19 455.65 596.03 455.48 610.9 461.35 620.85 458.31 629.81 450.59 638.36 429.7 632.32 416.71 631.9 413.49 662.41 Z"/>
<path d="M 81 600.63 89.73 600.88 90.76 588.59 102.43 565.3 92.66 564.04 93.98 544.51 79 545.29 79 525.53 92.91 526.47 107.34 532.14 99.39 504.38 140.44 506.44 151.23 509.97 157.3 528.42 144.15 555.57 159.43 570.48 159.24 587.49 146.61 599.23 148.79 605.29 145.38 623.92 152.78 636.61 148.33 647.29 158.49 653.4 171.16 653.96 164.64 669.87 151.42 669.12 140.24 674.26 131.22 664.01 117.23 674.48 107.14 670.14 84.84 668.39 68.91 656.36 68.99 642.9 64.71 631.42 80.1 619.88 81 600.63 Z"/>
<path d="M 243.08 353.05 246.62 329.11 252.3 329.44 256.5 314.73 240.85 313.62 239.96 321.27 218.91 319.35 211.37 307.4 213.05 302.78 212.41 298.14 212.28 298.09 213.85 292.72 208.41 282.67 206.27 271.92 204.21 268.73 200.56 268.35 199.23 265.51 193.72 260.36 186.19 258.27 182.27 271.37 184.68 285.63 155.32 285.57 155.18 212.34 155.04 141.45 155.32 92.16 213.49 92.16 215.41 100.23 225.72 102.33 227.21 92.16 311.55 92.17 313.37 115.35 306.11 157.15 296.58 165.26 301.44 176.22 300.83 193.64 306.73 203.34 310.09 219.31 333.57 245.09 342.71 242.21 358.63 257.8 385.48 268.45 396.28 282.17 399.01 310.74 401.8 319.27 402.89 344.52 377.29 346.05 376.94 345.7 364.33 347.3 361.66 360.32 351.63 367.42 339.12 364.32 322.21 366.53 313.68 355.59 295.17 356.88 280.36 351.34 269.37 354.5 243.08 353.05 Z M 274.18 219.86 285.53 212.91 283.47 192.5 270 188.41 266.23 172.17 251.94 184.95 256.89 200.9 270.84 202.03 277.92 211.95 274.18 219.86 Z M 215.22 182.88 216.47 176.35 235.63 177.57 219.98 162.45 215.44 172.57 216.1 174.99 210.15 184.01 202.09 182.07 201.84 182.79 199.93 188.44 198.73 191.99 193.44 194.89 191 208.38 181.38 227.41 179.42 242.61 185.71 254.5 193.87 260.42 199.25 265.5 200.56 268.32 204.22 268.71 206.56 270.1 206.18 246.22 202.75 237.06 212.45 209.73 210.78 202.06 215.22 182.88 Z" fill-rule="evenodd"/>
<path d="M 237.5 534.86 237.63 523.72 225.81 523.58 227.16 509.52 214.77 510.31 213.1 502.68 189.56 501.46 190.78 488.31 173.95 486.66 164.55 462.63 165.52 452.46 177.49 438.8 176.94 423.11 192.67 422.55 201.34 417.31 215.75 429.4 220.33 425.57 219.13 436.93 238.7 455.83 230.48 462.86 232.98 472.42 250.63 483.24 256.15 499.2 265.27 499.82 278.74 515.67 283.98 527.87 270.74 538.44 237.5 534.86 Z"/>
<path d="M 1.2 735.15 39.08 739.8 56.52 724.16 77.02 735.15 76.41 742.88 98.36 744.16 100.56 733.32 122.16 735.24 121.46 729.86 137.93 716.51 146.5 717.15 156.87 728.11 163.22 723.34 182.52 743.81 214.04 744.39 211.75 764.65 204.78 775.72 205.08 786.45 192.79 792.45 182.11 789.73 167.71 794.98 149.26 795.61 147.93 822.71 139.92 821.89 138.73 835.06 150.72 838.04 150.62 862.27 72.7 862.28 1.23 862.29 1.22 787.71 1.2 735.15 Z"/>
<path d="M 46.33 452.63 31.31 446.22 32.1 424.42 47.6 427.32 46.33 452.63 Z"/>
<path d="M 392.25 385.73 378.78 377.55 361.66 360.32 364.33 347.3 376.94 345.7 377.29 346.05 402.89 344.52 407.93 366.14 414.42 369.26 425.23 384.84 392.25 385.73 Z"/>
<path d="M 292.94 533.67 283.98 527.87 278.74 515.67 265.27 499.82 256.15 499.2 250.63 483.24 232.98 472.42 230.48 462.86 238.7 455.83 219.13 436.93 220.33 425.57 233 433.88 247.36 433.22 271.01 426.65 284.79 433.98 308.04 435.28 316.57 449.33 326.86 448.9 340.23 454.08 347.85 462.78 347.29 467.97 342.7 483.84 350.75 491.19 345.08 502.81 349 510.62 339.94 519.4 327.3 524.78 323.89 532.46 301.65 535.73 292.94 533.67 Z"/>
<path d="M 334.94 666.59 311.54 648.35 290.3 646.66 291.25 638.64 274.85 637.11 276.38 622.25 270.07 621.69 275.28 596.49 285.06 592.14 284.38 582.23 298.11 575.27 298.48 567.88 288.56 561.83 292.94 533.67 301.65 535.73 323.89 532.46 331.1 534.38 329.55 551.02 349.06 557.78 351.36 571.44 365.58 586.6 375.49 627.59 384.44 629.41 387.93 639.51 382.06 649.16 369.11 646.02 350.36 659.39 347.22 667.93 334.94 666.59 Z"/>
<path d="M 719.77 850.69 722.59 842.73 733.93 833.25 743.02 822.83 772.64 820.4 783.01 806.94 784.8 795.55 789.21 812.74 777.73 837.35 775.08 852.3 757.62 854.36 754.02 861.39 721.59 854.86 719.77 850.69 Z"/>
<path d="M 686.1 793.1 667.69 783.98 657.39 778.36 658.96 769.13 648.16 751.21 664.1 736.4 681.44 716.89 766.53 716.88 782.79 786.25 719.82 786.23 719.41 794.72 709.54 797.99 686.1 793.1 Z"/>
<path d="M 781.86 978.14 780.09 956.65 785.92 949.4 794.15 951.55 795.26 973.49 781.86 978.14 Z"/>
<path d="M 568.78 1011.36 561.77 998.88 563.81 979.98 568.03 974.7 586.71 976.88 589.38 964.78 620.61 964.4 638.28 952.13 653.29 961.79 671.35 973.48 691.2 972.94 704.82 981.89 701.42 992.06 688.19 1010.06 694.48 1017 682.66 1013.34 655.83 997.74 639.92 999.26 632.26 992.76 600.79 997.64 589.3 995.72 568.78 1011.36 Z"/>
<path d="M 749.41 892.44 742.44 887.4 728.48 886.88 716.76 863.48 707.21 859.24 719.77 850.69 721.59 854.86 754.02 861.39 757.62 854.36 775.08 852.3 779.97 859.85 776.17 870.4 763.67 872.64 760.39 886.56 749.41 892.44 Z"/>
<path d="M 420.49 499.71 401.18 492.95 403.36 480.82 398.45 474.92 399.46 471.99 416.27 472.25 418.16 477.75 463.29 477.26 463.29 481.54 494.01 481.54 513.75 492.48 539.48 502.94 447.9 502.94 447.9 498.66 420.49 499.71 Z"/>
<path d="M 740.54 958.15 746.26 942.88 757.36 939.25 768.18 946.08 761.16 956.15 747.06 950.65 740.54 958.15 Z"/>
<path d="M 477.95 726.44 460.14 721.78 445.07 702.41 432.51 695.85 431.81 683.73 417.5 679.94 413.49 662.41 416.71 631.9 429.7 632.32 450.59 638.36 458.31 629.81 485.72 641.15 495.6 636.46 504.56 622.21 519.15 617.22 516.05 607.61 526.22 602.16 531.91 618.54 542.66 624.57 570.63 628.85 565.59 642.64 579.02 643.86 585.65 637.79 595.89 639 604.45 629.6 604.45 618.43 711.51 618.28 753.43 617.86 748.63 639.98 754.59 651.96 670.88 652.27 606.11 651.93 606.21 676.81 597.95 687.76 588.07 693.08 584.78 702.12 576.06 711.05 568.28 711.37 561.53 722.05 552.38 726.3 542.38 702.11 531.25 705.83 514.22 692.72 504 698.17 481.27 717.99 477.95 726.44 Z"/>
<path d="M 180.15 323.26 188.39 301.24 192.39 304.8 195.63 305.13 199.99 304.11 200.44 303.79 200.62 303.86 201.04 303.6 202.12 303.57 202.17 303.39 202.76 303.34 203.22 303.48 203.55 303.1 204.34 303.02 206.07 302.06 206.63 302.45 209.3 301.61 212.44 298.66 212.41 298.14 213.05 302.78 211.37 307.4 205.18 326.85 180.15 323.26 Z"/>
<path d="M 664.1 736.4 650.55 735.01 636.99 715.76 613.41 711.3 601.02 713.16 591.71 714.78 584.78 702.12 588.07 693.08 597.95 687.76 606.21 676.81 606.11 651.93 670.88 652.27 754.59 651.96 759.19 669.91 756.89 675.75 766.53 716.88 681.44 716.89 664.1 736.4 Z"/>
<path d="M 274.18 219.86 277.92 211.95 270.84 202.03 256.89 200.9 251.94 184.95 266.23 172.17 270 188.41 283.47 192.5 285.53 212.91 274.18 219.86 Z"/>
<path d="M 739.86 963.82 733.74 963.55 720.42 949.73 718.17 938.1 729.73 933.66 739.05 934.44 746.26 942.88 740.54 958.15 739.86 963.82 Z"/>
<path d="M 761.16 956.15 768.18 946.08 780.23 944.95 785.92 949.4 780.09 956.65 775.56 961.73 761.16 956.15 Z"/>
<path d="M 320.8 824.22 316.95 814.21 306.41 802.34 292.02 811.95 279.91 804.54 285.37 792.98 294.89 785.85 296.12 769.33 277.23 765.92 272.31 774.22 259.98 766.66 261.46 753.52 251.65 744.5 250.3 726.24 256.87 715.43 289.44 684.72 333.57 689.13 339.5 692.46 333.99 706.83 353.64 708.75 356.7 719.62 349.68 756.5 352.42 761.39 345.24 770.55 344.43 793.08 341.46 809.44 320.8 824.22 Z"/>
<path d="M 526.22 602.16 547.58 582.62 565.95 585.41 565.95 573.11 652.74 573.24 660.94 583.16 678.27 591.79 719.69 616.67 729.31 602.47 750.47 607.08 753.43 617.86 711.51 618.28 604.45 618.43 604.45 629.6 595.89 639 585.65 637.79 579.02 643.86 565.59 642.64 570.63 628.85 542.66 624.57 531.91 618.54 526.22 602.16 Z"/>
<path d="M 469.62 959.91 466.34 941.35 468.2 918.92 473.8 912.13 482.89 869.32 485.94 862.98 471.46 851.21 491.02 827.11 497.91 815.22 512.1 805.11 533.07 823.16 551.93 825.86 562.73 834.68 570.89 859.77 577.22 868.38 574.46 877.03 607.81 878.01 601.08 886.33 600.74 917.64 589.42 932.64 587.69 952.32 575.64 946.82 557.45 945.35 552.6 949.37 535.86 944.47 496.53 945.93 492.02 957.19 469.62 959.91 Z"/>
<path d="M 347.85 462.78 340.23 454.08 326.86 448.9 316.57 449.33 308.04 435.28 284.79 433.98 271.01 426.65 247.36 433.22 233 433.88 220.33 425.57 233.38 409.32 232.67 398.89 237.19 358.77 243.08 353.05 269.37 354.5 280.36 351.34 295.17 356.88 313.68 355.59 322.21 366.53 339.12 364.32 351.63 367.42 361.66 360.32 378.78 377.55 392.25 385.73 392.53 404.92 382.48 406.55 383.02 415.82 355.41 434.98 353.26 458.18 347.85 462.78 Z"/>
<path d="M 151.23 509.97 176.69 515.53 214.76 526.38 225.81 523.58 237.63 523.72 237.5 534.86 225.87 533.82 223.83 571.32 225.24 591.33 218.8 606.44 219.42 617.84 210.29 633.48 209.07 647.6 184.99 646.5 180.07 654.35 171.16 653.96 158.49 653.4 148.33 647.29 152.78 636.61 145.38 623.92 148.79 605.29 146.61 599.23 159.24 587.49 159.43 570.48 144.15 555.57 157.3 528.42 151.23 509.97 Z"/>
<path d="M 758.31 930.17 754.75 903.52 763.93 911.55 778.76 910.58 774.64 928.25 768.78 934.64 758.31 930.17 Z"/>
<path d="M 67.36 386.73 60.84 380.29 68.1 372.85 76.49 381.28 67.36 386.73 Z"/>
<path d="M 1.12 615.69 1.07 519.05 1.05 460.83 13.47 461.67 11.17 491.56 32.32 493.62 40.1 501.33 51.93 491.19 64.09 498.65 63.12 510.18 80.88 511.58 79 525.53 79 545.29 93.98 544.51 92.66 564.04 102.43 565.3 90.76 588.59 89.73 600.88 81 600.63 59.22 603.67 54.71 598.76 28.48 621.89 10.38 605.62 1.12 615.69 Z"/>
<path d="M 373.56 914.13 377.4 898.58 376.49 886.08 384.31 836.97 385.86 849.42 410.32 847.1 420.76 841.31 422.99 825.19 438.07 828.31 441.44 820.05 457.05 822.45 466.26 810.93 478.45 805.75 500.72 797.39 512.1 805.11 497.91 815.22 491.02 827.11 471.46 851.21 485.94 862.98 482.89 869.32 473.8 912.13 468.2 918.92 466.34 941.35 444.76 939 442.96 923.71 423.66 914.37 402 912.56 391.33 917.66 373.56 914.13 Z"/>
<path d="M 210.15 184.01 216.1 174.99 215.44 172.57 219.98 162.45 235.63 177.57 216.47 176.35 215.22 182.88 210.15 184.01 Z"/>
<path d="M 760.39 886.56 763.67 872.64 776.17 870.4 776.13 888.05 760.39 886.56 Z"/>
<path d="M 672.6 867.42 651.76 860.89 650.8 844.98 639.66 842.24 637.01 836.16 650.88 795.35 661.09 796.92 667.69 783.98 686.1 793.1 697.5 813.86 706.69 814.9 712.82 826.53 728.47 828.36 733.93 833.25 722.59 842.73 719.77 850.69 707.21 859.24 672.6 867.42 Z"/>
<path d="M 213.49 92.16 227.21 92.16 225.72 102.33 215.41 100.23 213.49 92.16 Z"/>
<path d="M 333.91 1016.45 342.1 1006.67 340.11 963.82 324.25 961.36 325.77 947.27 335.92 937.23 355.45 939.36 361.47 927.97 368.96 928.77 373.56 914.13 391.33 917.66 402 912.56 423.66 914.37 442.96 923.71 444.76 939 466.34 941.35 469.62 959.91 462.73 964.63 459.4 1002.33 460.42 1016.45 390.67 1016.45 333.91 1016.45 Z"/>
<path d="M 188.66 301.17 184.68 285.63 182.27 271.37 186.19 258.27 193.72 260.36 199.23 265.51 200.56 268.35 204.21 268.73 206.27 271.92 208.41 282.67 213.85 292.72 212.28 298.09 210.78 300.22 206.78 302.14 206.22 301.96 204.45 302.37 203.85 302.68 203.2 303.46 202.77 303.32 202.19 303.32 201.32 303.49 201.04 303.57 200.63 303.83 200.4 303.76 199.97 304.08 198.55 304.07 196.58 304.82 192.44 304.77 188.66 301.17 Z"/>
<path d="M 325.77 947.27 307.63 945.99 300.82 937.21 284.48 928.97 266.03 927.25 264.58 921.07 250.5 919.64 239.64 911.54 223.7 908.96 221.69 902.96 197.65 900.84 192.16 880.45 209.58 882.03 214.88 872.52 215.48 855.03 236.93 842.37 268.11 848.97 279.36 841.63 280.59 830.02 288.36 825.6 309.32 840.98 320.8 824.22 341.46 809.44 344.43 793.08 345.1 802.42 355.38 813.07 363.28 828.22 375.13 829.52 384.31 836.97 376.49 886.08 377.4 898.58 373.56 914.13 368.96 928.77 361.47 927.97 355.45 939.36 335.92 937.23 325.77 947.27 Z"/>
<path d="M 785.92 949.4 780.23 944.95 781.66 937.83 799 936.27 794.15 951.55 785.92 949.4 Z"/>
<path d="M 210.29 633.48 219.42 617.84 218.8 606.44 225.24 591.33 223.83 571.32 225.87 533.82 237.5 534.86 270.74 538.44 283.98 527.87 292.94 533.67 288.56 561.83 298.48 567.88 298.11 575.27 284.38 582.23 285.06 592.14 275.28 596.49 270.07 621.69 242.21 635.9 223.66 638.39 210.29 633.48 Z"/>
<path d="M 616.51 747.14 604.79 733.03 603.68 730.74 601.02 713.16 613.41 711.3 636.99 715.76 650.55 735.01 664.1 736.4 648.16 751.21 634.73 749.86 629.08 741.76 616.51 747.14 Z"/>
<path d="M 744.92 978.16 739.86 963.82 740.54 958.15 747.06 950.65 761.16 956.15 775.56 961.73 780.09 956.65 781.86 978.14 774.57 982.82 749.63 982.56 744.92 978.16 Z"/>
<path d="M 746.26 942.88 739.05 934.44 729.73 933.66 730.05 914.22 726.97 908.67 728.48 886.88 742.44 887.4 749.41 892.44 754.75 903.52 758.31 930.17 757.36 939.25 746.26 942.88 Z"/>
<path d="M 701.81 909.34 689.5 896.17 672.53 886.2 672.6 867.42 707.21 859.24 716.76 863.48 728.48 886.88 726.97 908.67 716.45 903.6 701.81 909.34 Z"/>
<path d="M 691.2 972.94 696.45 963.82 715.59 965.77 733.74 963.55 739.86 963.82 744.92 978.16 720.74 992.12 720.43 1011.7 694.48 1017 688.19 1010.06 701.42 992.06 704.82 981.89 691.2 972.94 Z"/>
<path d="M 754.75 903.52 749.41 892.44 760.39 886.56 776.13 888.05 778.76 910.58 763.93 911.55 754.75 903.52 Z"/>
<path d="M 347.29 467.97 347.85 462.78 353.26 458.18 355.41 434.98 383.02 415.82 382.48 406.55 392.53 404.92 401.67 415.55 403.45 425.86 390.2 438.36 395.78 447.84 393.53 455.85 402.42 466.34 399.46 471.99 398.45 474.92 373.93 473.61 367.71 480.64 352.2 476.99 347.29 467.97 Z"/>
<path d="M 653.29 961.79 656.07 944.57 672.24 942.75 673.06 933.13 684.37 935.05 685.89 924.47 698.39 916.67 701.81 909.34 716.45 903.6 726.97 908.67 730.05 914.22 729.73 933.66 718.17 938.1 720.42 949.73 733.74 963.55 715.59 965.77 696.45 963.82 691.2 972.94 671.35 973.48 653.29 961.79 Z"/>
<path d="M 213.49 92.16 155.32 92.16 155.39 60.14 206.65 28.83 226.33 25.41 257.98 23.7 283.64 10 299.04 8.29 322.14 15.14 322.33 33.01 310.5 46.89 305.57 65.17 311.55 92.17 227.21 92.16 213.49 92.16 Z M 233.88 14.54 233.58 8.12 247.97 6.09 246.54 14.41 233.88 14.54 Z" fill-rule="evenodd"/>
<path d="M 459.66 543.23 439.6 538.28 440.28 524.37 420.49 499.71 447.9 498.66 447.9 502.94 539.48 502.94 561.58 508.49 582.61 518.34 471.85 518.34 465.46 525.07 464.29 539.7 459.66 543.23 Z"/>
<path d="M 589.38 964.78 587.69 952.32 589.42 932.64 600.74 917.64 601.08 886.33 607.81 878.01 574.46 877.03 577.22 868.38 570.89 859.77 595.41 859.6 612.44 853.07 637.08 852.49 639.66 842.24 650.8 844.98 651.76 860.89 672.6 867.42 672.53 886.2 689.5 896.17 701.81 909.34 698.39 916.67 685.89 924.47 684.37 935.05 673.06 933.13 672.24 942.75 656.07 944.57 653.29 961.79 638.28 952.13 620.61 964.4 589.38 964.78 Z"/>
<path d="M 458.31 629.81 461.35 620.85 455.48 610.9 455.65 596.03 462.01 586.19 470.87 587.84 481.09 574.74 477.34 560.83 487.21 559.29 488.46 547.76 500.08 538.88 565.95 538.88 617.49 538.84 636.92 551.77 652.74 573.24 565.95 573.11 565.95 585.41 547.58 582.62 526.22 602.16 516.05 607.61 519.15 617.22 504.56 622.21 495.6 636.46 485.72 641.15 458.31 629.81 Z"/>
<path d="M 146.5 717.15 157.64 705.72 165.47 687.74 159.35 680.97 164.64 669.87 171.16 653.96 180.07 654.35 184.99 646.5 209.07 647.6 210.29 633.48 223.66 638.39 242.21 635.9 270.07 621.69 276.38 622.25 274.85 637.11 291.25 638.64 290.3 646.66 311.54 648.35 334.94 666.59 327.6 674.96 317.79 668.54 301.24 667.48 289.44 684.72 256.87 715.43 250.3 726.24 251.65 744.5 229.94 742.62 214.04 744.39 182.52 743.81 163.22 723.34 156.87 728.11 146.5 717.15 Z"/>
</g>
</svg>